# xmcd
#
# Track frame offsets:
#	150
#	13290
#	27715
#	42824
#	56163
#	67445
#	81439
#	99571
#	114163
#	126645
#	142228
#	158889
#	172381
#	185391
#	197348
#	214538
#	227906
#	245565
#	266801
#	278261
#
# Disc length: 3944 seconds
#
# Revision: 0
# Processed by: cddbd v1.5.2PL0 Copyright (c) Steve Scherf et al.
# Submitted via: EasyCDDAExtractor 15.0.0.1
#
DISCID=390f6614
DTITLE=Marcus Rossi and Ulian - Acustico
DYEAR=1900
DGENRE=
TTITLE0=To tinino
TTITLE1=Oasis da paixao
TTITLE2=Bebo pra carai
TTITLE3=Mulher amada
TTITLE4=To indo embora
TTITLE5=Berrante de madalena
TTITLE6=Vou beber veneno
TTITLE7=Ci na realidade
TTITLE8=Me leva
TTITLE9=Quem chorou foi eu
TTITLE10=Ja foi de voce
TTITLE11=Ela foi embora
TTITLE12=a saudade ta doendo
TTITLE13=Cuitelinho
TTITLE14=Pinga na Garganta
TTITLE15=Perdoa-me
TTITLE16=Rastreado por fuxiqueiro
TTITLE17=Ficha tecnica 
TTITLE18=Violao nylon 
TTITLE19=Violao aco
EXTD=
EXTT0=
EXTT1=
EXTT2=
EXTT3=
EXTT4=
EXTT5=
EXTT6=
EXTT7=
EXTT8=
EXTT9=
EXTT10=
EXTT11=
EXTT12=
EXTT13=
EXTT14=
EXTT15=
EXTT16=
EXTT17=
EXTT18=
EXTT19=
PLAYORDER=
